<?xml version="1.0" encoding="UTF-8" standalone="no"?>
<!DOCTYPE svg PUBLIC "-//W3C//DTD SVG 1.1//EN" "http://www.w3.org/Graphics/SVG/1.1/DTD/svg11.dtd">
<svg width="100%" height="100%" viewBox="0 0 32 32" version="1.1" xmlns="http://www.w3.org/2000/svg" xmlns:xlink="http://www.w3.org/1999/xlink" xml:space="preserve" xmlns:serif="http://www.serif.com/" style="fill-rule:evenodd;clip-rule:evenodd;stroke-linecap:round;stroke-linejoin:round;stroke-miterlimit:1.5;">
    <path d="M25.775,9.775L24,26.225C24,27.757 22.757,29 21.225,29L10.775,29C9.243,29 8,27.757 8,26.225L6.225,9.775C6.225,8.243 7.468,7 9,7L23,7C24.532,7 25.775,8.243 25.775,9.775Z" style="fill-opacity:0;stroke:black;stroke-width:2px;"/>
    <g transform="matrix(1.125333,0,0,1,-2.005322,-1)">
        <path d="M6.225,9.775C6.225,8.243 7.468,7 9,7L23,7C24.532,7 25.775,8.243 25.775,9.775L6.225,9.775Z" style="stroke:black;stroke-width:1.88px;"/>
    </g>
    <path d="M16,13L16,25" style="fill:none;stroke:black;stroke-width:1px;"/>
    <path d="M20,25L21,13" style="fill:none;stroke:black;stroke-width:1px;"/>
    <path d="M11,13L12,25" style="fill:none;stroke:black;stroke-width:1px;"/>
    <g transform="matrix(1,0,0,1,0,-1)">
        <path d="M11,7L11,5.5C11,4.672 11.672,4 12.5,4L19.5,4C20.328,4 21,4.672 21,5.5L21,7" style="fill-opacity:0;stroke:black;stroke-width:2px;"/>
    </g>
</svg>
