<?xml version="1.0" encoding="UTF-8" standalone="no"?>
<!DOCTYPE svg PUBLIC "-//W3C//DTD SVG 1.1//EN" "http://www.w3.org/Graphics/SVG/1.1/DTD/svg11.dtd">
<svg width="100%" height="100%" viewBox="0 0 32 32" version="1.1" xmlns="http://www.w3.org/2000/svg" xmlns:xlink="http://www.w3.org/1999/xlink" xml:space="preserve" xmlns:serif="http://www.serif.com/" style="fill-rule:evenodd;clip-rule:evenodd;stroke-linecap:round;stroke-linejoin:round;stroke-miterlimit:1.5;">
    <g transform="matrix(0.909091,0,0,0.789474,0.545455,4.105263)">
        <path d="M28,13.791L28,25.209L28,29L6,29L6,25.209L6,13.791C6,11.699 7.869,10 10.17,10L23.83,10C26.131,10 28,11.699 28,13.791Z" style="fill-opacity:0;stroke:black;stroke-width:2.35px;"/>
    </g>
    <g transform="matrix(1,0,0,0.666667,0,9)">
        <path d="M17,12.599L17,17.401C17,17.732 16.821,18 16.601,18L15.399,18C15.179,18 15,17.732 15,17.401L15,12.599C15,12.268 15.179,12 15.399,12L16.601,12C16.821,12 17,12.268 17,12.599Z" style="fill-opacity:0;stroke:black;stroke-width:2.35px;"/>
    </g>
    <g transform="matrix(0.875,0,0,1.805556,1.125,4.194444)">
        <path d="M13,3.769L13,2.846C13,1.827 14.792,1 17,1C19.208,1 21,1.827 21,2.846L21,3.769" style="fill-opacity:0;stroke:black;stroke-width:2.11px;"/>
    </g>
</svg>
