<?xml version="1.0" encoding="UTF-8" standalone="no"?>
<!DOCTYPE svg PUBLIC "-//W3C//DTD SVG 1.1//EN" "http://www.w3.org/Graphics/SVG/1.1/DTD/svg11.dtd">
<svg width="100%" height="100%" viewBox="0 0 32 32" version="1.1" xmlns="http://www.w3.org/2000/svg" xmlns:xlink="http://www.w3.org/1999/xlink" xml:space="preserve" xmlns:serif="http://www.serif.com/" style="fill-rule:evenodd;clip-rule:evenodd;stroke-linecap:round;stroke-linejoin:round;stroke-miterlimit:1.5;">
    <g transform="matrix(1.436337,0,0,1.436337,0.520548,-5.094054)">
        <g transform="matrix(1.099329,0,0,1.098214,-2.684016,4.400079)">
            <circle cx="17" cy="12" r="2" style="fill:white;fill-opacity:0;stroke:black;stroke-width:1.27px;"/>
        </g>
        <g transform="matrix(0.392997,0,0,0.671131,10.306128,8.121806)">
            <path d="M3,24.52C3,22.577 5.169,21 7.84,21L21.16,21C23.831,21 26,22.577 26,24.52" style="fill:white;fill-opacity:0;stroke:black;stroke-width:2.53px;"/>
        </g>
    </g>
    <g transform="matrix(1.436337,0,0,1.436337,-14.496501,-5.094054)">
        <g transform="matrix(1.099329,0,0,1.098214,-2.684016,4.400079)">
            <circle cx="17" cy="12" r="2" style="fill:white;fill-opacity:0;stroke:black;stroke-width:1.27px;"/>
        </g>
        <g transform="matrix(0.392997,0,0,0.671131,10.306128,8.121806)">
            <path d="M3,24.52C3,22.577 5.169,21 7.84,21L21.16,21C23.831,21 26,22.577 26,24.52" style="fill:white;fill-opacity:0;stroke:black;stroke-width:2.53px;"/>
        </g>
    </g>
    <g transform="matrix(1,0,0,0.928571,0,0.142857)">
        <path d="M29,4.345L29,9.035C29,10.329 28.024,11.38 26.823,11.38L18.47,11.38L16,16L13.53,11.38L5.177,11.38C3.976,11.38 3,10.329 3,9.035L3,4.345C3,3.051 3.976,2 5.177,2L26.823,2C28.024,2 29,3.051 29,4.345Z" style="fill:white;fill-opacity:0;stroke:black;stroke-width:2.07px;"/>
    </g>
    <g transform="matrix(2,0,0,2,-7,-7)">
        <circle cx="8.5" cy="6.5" r="0.5"/>
    </g>
    <g transform="matrix(2,0,0,2,-1,-7)">
        <circle cx="8.5" cy="6.5" r="0.5"/>
    </g>
    <g transform="matrix(2,0,0,2,6,-7)">
        <circle cx="8.5" cy="6.5" r="0.5"/>
    </g>
</svg>
