<?xml version="1.0" encoding="UTF-8" standalone="no"?>
<!DOCTYPE svg PUBLIC "-//W3C//DTD SVG 1.1//EN" "http://www.w3.org/Graphics/SVG/1.1/DTD/svg11.dtd">
<svg width="100%" height="100%" viewBox="0 0 32 32" version="1.1" xmlns="http://www.w3.org/2000/svg" xmlns:xlink="http://www.w3.org/1999/xlink" xml:space="preserve" xmlns:serif="http://www.serif.com/" style="fill-rule:evenodd;clip-rule:evenodd;stroke-linecap:round;stroke-linejoin:round;stroke-miterlimit:1.5;">
    <g transform="matrix(1,0,0,1,-2.83984,-1.564823)">
        <path d="M15.84,21C15.84,21 18,14 19,11C19.211,10.368 17.447,9.658 17,11C16,14 14.409,19.212 14.409,19.212L18.84,25.565L18,30" style="fill:none;stroke:black;stroke-width:2px;"/>
    </g>
    <g transform="matrix(1,0,0,1,-1.543971,-3.181324)">
        <path d="M12,24L9.544,31.617" style="fill:none;stroke:black;stroke-width:2px;"/>
    </g>
    <g transform="matrix(1,0,0,1,-2.72334,-2)">
        <circle cx="19.5" cy="6.5" r="1.5" style="stroke:black;stroke-width:2px;"/>
    </g>
    <g transform="matrix(1,0,0,1,-2.83984,-1.564823)">
        <path d="M19,10.746L23,15L26,14" style="fill:none;stroke:black;stroke-width:2px;"/>
    </g>
    <g transform="matrix(1,0,0,1,-2.83984,-1.564823)">
        <path d="M26,12L23,30" style="fill:none;stroke:black;stroke-width:1px;"/>
    </g>
    <g transform="matrix(0.648782,0.198264,-0.248411,0.812878,4.96001,-1.999064)">
        <path d="M14,10.599L14,16.401C14,16.732 13.664,17 13.25,17L11.75,17C11.336,17 11,16.732 11,16.401L11,10.599C11,10.268 11.336,10 11.75,10L13.25,10C13.664,10 14,10.268 14,10.599Z" style="stroke:black;stroke-width:2.6px;"/>
    </g>
</svg>
