<?xml version="1.0" encoding="UTF-8" standalone="no"?>
<!DOCTYPE svg PUBLIC "-//W3C//DTD SVG 1.1//EN" "http://www.w3.org/Graphics/SVG/1.1/DTD/svg11.dtd">
<svg width="100%" height="100%" viewBox="0 0 32 32" version="1.1" xmlns="http://www.w3.org/2000/svg" xmlns:xlink="http://www.w3.org/1999/xlink" xml:space="preserve" xmlns:serif="http://www.serif.com/" style="fill-rule:evenodd;clip-rule:evenodd;stroke-linecap:round;stroke-linejoin:round;stroke-miterlimit:1.5;">
    <g transform="matrix(0.8,0,0,0.751186,2,6.483392)">
        <path d="M20,14C20,14 19.802,26.303 20,28.97C20.039,29.493 20.676,29.894 21.19,30C22.023,30.172 23.75,29.975 23.75,29.975M11.25,29.975C11.25,29.975 12.917,30.167 13.75,30C14.273,29.895 14.958,29.532 15,29C15.208,26.333 15,14 15,14" style="fill:rgb(45,80,22);fill-opacity:0;stroke:black;stroke-width:2.58px;"/>
    </g>
    <g transform="matrix(1,0,0,1,-1,2.5)">
        <path d="M15,14.5C15,14.5 14.208,17.136 10.5,17C8.041,16.649 6,14.984 6,12.5C6,10.016 8.016,8 10.5,8" style="fill:rgb(45,80,22);fill-opacity:0;stroke:black;stroke-width:2px;"/>
    </g>
    <g transform="matrix(1,0,0,1,0,2.25)">
        <path d="M9.5,8.25C9.5,8.25 8,7.432 8,5.5C8,3.568 9.568,2 11.5,2" style="fill:rgb(45,80,22);fill-opacity:0;stroke:black;stroke-width:2px;"/>
    </g>
    <g transform="matrix(0.857143,0,0,1,0.142857,1)">
        <path d="M13.833,3.25C13.833,3.25 14.51,1 17.333,1C20.28,0.891 22,2.344 22,4" style="fill:rgb(45,80,22);fill-opacity:0;stroke:black;stroke-width:2.15px;"/>
    </g>
    <path d="M19,5C19,5 21.102,3.096 22.78,3.703C24.796,4.554 24,7 24,7" style="fill:rgb(45,80,22);fill-opacity:0;stroke:black;stroke-width:2px;"/>
    <g transform="matrix(1,0,0,0.785714,1,2.642857)">
        <path d="M23,5.545C24.092,5.691 25.083,5.536 26.021,6.984C26.87,8.587 26,10.636 26,10.636" style="fill:rgb(45,80,22);fill-opacity:0;stroke:black;stroke-width:2.22px;"/>
    </g>
    <g transform="matrix(1,0,0,1,1,0.5)">
        <path d="M24,16.5C24,18.432 22.432,20 20.5,20C18.568,20 17,18.432 17,16.5" style="fill:rgb(45,80,22);fill-opacity:0;stroke:black;stroke-width:2px;"/>
    </g>
    <g transform="matrix(0.75,0,0,1,8.75,1)">
        <path d="M24.333,10C24.333,10 27.29,10.474 27,13C26.516,15.272 23.874,16 21.667,16" style="fill:rgb(45,80,22);fill-opacity:0;stroke:black;stroke-width:2.26px;"/>
    </g>
    <path d="M14,17L14,13" style="fill:none;stroke:black;stroke-width:2px;"/>
    <path d="M18,17L18,14" style="fill:none;stroke:black;stroke-width:2px;"/>
    <path d="M13,9C13,9 12.287,7.256 14,6" style="fill:none;stroke:black;stroke-width:2px;"/>
    <g transform="matrix(1,0,0,1,-0.490029,0.824348)">
        <path d="M19,8C19,8 20.533,7.408 21.5,9" style="fill:none;stroke:black;stroke-width:2px;"/>
    </g>
    <path d="M21.5,15C21.5,15 23.629,15.272 24,13" style="fill:none;stroke:black;stroke-width:2px;"/>
    <g transform="matrix(1,0,0,1,0.18228,0.510159)">
        <path d="M9,13C9,13 8.185,15.016 10,16" style="fill:none;stroke:black;stroke-width:2px;"/>
    </g>
</svg>
