<?xml version="1.0" encoding="UTF-8" standalone="no"?>
<!DOCTYPE svg PUBLIC "-//W3C//DTD SVG 1.1//EN" "http://www.w3.org/Graphics/SVG/1.1/DTD/svg11.dtd">
<svg width="100%" height="100%" viewBox="0 0 32 32" version="1.1" xmlns="http://www.w3.org/2000/svg" xmlns:xlink="http://www.w3.org/1999/xlink" xml:space="preserve" xmlns:serif="http://www.serif.com/" style="fill-rule:evenodd;clip-rule:evenodd;stroke-linecap:round;stroke-linejoin:round;stroke-miterlimit:1.5;">
    <rect x="13" y="13" width="6" height="6" style="fill:rgb(45,80,22);fill-opacity:0;stroke:black;stroke-width:2px;"/>
    <g transform="matrix(0.875,0,0,0.875,2,2)">
        <rect x="8" y="8" width="16" height="16" style="fill:rgb(45,80,22);fill-opacity:0;stroke:black;stroke-width:2.29px;"/>
    </g>
    <path d="M13,8L13,6L11,4" style="fill:none;stroke:black;stroke-width:2px;"/>
    <path d="M19,8L19,5L21,3" style="fill:none;stroke:black;stroke-width:2px;"/>
    <path d="M23,23L25,25L27,25" style="fill:none;stroke:black;stroke-width:2px;"/>
    <path d="M24,11L27,11" style="fill:none;stroke:black;stroke-width:2px;"/>
    <path d="M24,16L26,16L28,18" style="fill:none;stroke:black;stroke-width:2px;"/>
    <path d="M19,23L19,28L15,28" style="fill:none;stroke:black;stroke-width:2px;"/>
    <path d="M10,23L10,29" style="fill:none;stroke:black;stroke-width:2px;"/>
    <g transform="matrix(2,0,0,2,4,-19)">
        <circle cx="3.5" cy="11.5" r="0.5" style="fill:rgb(45,80,22);stroke:black;stroke-width:1px;"/>
    </g>
    <g transform="matrix(2,0,0,2,14,-20)">
        <circle cx="3.5" cy="11.5" r="0.5" style="fill:rgb(45,80,22);stroke:black;stroke-width:1px;"/>
    </g>
    <g transform="matrix(2,0,0,2,20,-12)">
        <circle cx="3.5" cy="11.5" r="0.5" style="fill:rgb(45,80,22);stroke:black;stroke-width:1px;"/>
    </g>
    <g transform="matrix(2,0,0,2,21,-5)">
        <circle cx="3.5" cy="11.5" r="0.5" style="fill:rgb(45,80,22);stroke:black;stroke-width:1px;"/>
    </g>
    <g transform="matrix(2,0,0,2,21,2)">
        <circle cx="3.5" cy="11.5" r="0.5" style="fill:rgb(45,80,22);stroke:black;stroke-width:1px;"/>
    </g>
    <g transform="matrix(2,0,0,2,8,5)">
        <circle cx="3.5" cy="11.5" r="0.5" style="fill:rgb(45,80,22);stroke:black;stroke-width:1px;"/>
    </g>
    <g transform="matrix(2,0,0,2,3,6)">
        <circle cx="3.5" cy="11.5" r="0.5" style="fill:rgb(45,80,22);stroke:black;stroke-width:1px;"/>
    </g>
    <g transform="matrix(2,0,0,2,-4,-5)">
        <circle cx="3.5" cy="11.5" r="0.5" style="fill:rgb(45,80,22);stroke:black;stroke-width:1px;"/>
    </g>
    <g transform="matrix(2,0,0,2,-4,-12)">
        <circle cx="3.5" cy="11.5" r="0.5" style="fill:rgb(45,80,22);stroke:black;stroke-width:1px;"/>
    </g>
    <path d="M9,22L3,22L3,18" style="fill:none;stroke:black;stroke-width:2px;"/>
    <path d="M9,9L5,9L3,11" style="fill:none;stroke:black;stroke-width:2px;"/>
</svg>
