<?xml version="1.0" encoding="UTF-8" standalone="no"?>
<!DOCTYPE svg PUBLIC "-//W3C//DTD SVG 1.1//EN" "http://www.w3.org/Graphics/SVG/1.1/DTD/svg11.dtd">
<svg width="100%" height="100%" viewBox="0 0 32 32" version="1.1" xmlns="http://www.w3.org/2000/svg" xmlns:xlink="http://www.w3.org/1999/xlink" xml:space="preserve" xmlns:serif="http://www.serif.com/" style="fill-rule:evenodd;clip-rule:evenodd;stroke-linecap:round;stroke-linejoin:round;stroke-miterlimit:1.5;">
    <g transform="matrix(1.5,0,0,1.5,-8,-8)">
        <circle cx="16" cy="16" r="2" style="fill:rgb(45,80,22);fill-opacity:0;stroke:black;stroke-width:1.33px;"/>
    </g>
    <path d="M16,19L16,29" style="fill:none;stroke:black;stroke-width:2px;"/>
    <path d="M9,20C8.318,18.823 8,17.457 8,16C8,11.585 11.585,8 16,8C20.415,8 24,11.585 24,16C24,17.418 23.648,18.845 23,20" style="fill:rgb(45,80,22);fill-opacity:0;stroke:black;stroke-width:2px;"/>
    <path d="M4,21C3.339,19.442 3,17.797 3,16C3,8.825 8.825,3 16,3C23.175,3 29,8.825 29,16C29,17.774 28.644,19.459 28,21" style="fill:rgb(45,80,22);fill-opacity:0;stroke:black;stroke-width:2px;"/>
    <path d="M4,21C5,23 6,24 6,24" style="fill:none;stroke:black;stroke-width:2px;"/>
    <g transform="matrix(-1,0,0,1,32,0)">
        <path d="M4,21C5,23 6,24 6,24" style="fill:none;stroke:black;stroke-width:2px;"/>
    </g>
</svg>
