<?xml version="1.0" encoding="UTF-8" standalone="no"?>
<!DOCTYPE svg PUBLIC "-//W3C//DTD SVG 1.1//EN" "http://www.w3.org/Graphics/SVG/1.1/DTD/svg11.dtd">
<svg width="100%" height="100%" viewBox="0 0 32 32" version="1.1" xmlns="http://www.w3.org/2000/svg" xmlns:xlink="http://www.w3.org/1999/xlink" xml:space="preserve" xmlns:serif="http://www.serif.com/" style="fill-rule:evenodd;clip-rule:evenodd;stroke-linecap:round;stroke-linejoin:round;stroke-miterlimit:1.5;">
    <g>
        <g transform="matrix(-0,1,-0.541667,0,16.541667,12.8)">
            <path d="M14,9C13.007,9.933 12.2,11.404 12.2,13C12.2,14.596 13.007,16.067 14,17" style="fill:white;fill-opacity:0;stroke:black;stroke-width:2.49px;"/>
        </g>
        <g transform="matrix(0,-1,0.541667,-0,6.791667,40.8)">
            <path d="M14,9C13.007,9.933 12.2,11.404 12.2,13C12.2,14.596 13.007,16.067 14,17" style="fill:white;fill-opacity:0;stroke:black;stroke-width:2.49px;"/>
        </g>
        <g transform="matrix(-0,1,-0.541667,-0,25.208333,12.8)">
            <path d="M14,9C13.007,9.933 12.2,11.404 12.2,13C12.2,14.596 13.007,16.067 14,17" style="fill:white;fill-opacity:0;stroke:black;stroke-width:2.49px;"/>
        </g>
        <g transform="matrix(0,-1,0.541667,0,15.458333,40.8)">
            <path d="M14,9C13.007,9.933 12.2,11.404 12.2,13C12.2,14.596 13.007,16.067 14,17" style="fill:white;fill-opacity:0;stroke:black;stroke-width:2.49px;"/>
        </g>
        <g transform="matrix(-0,1,-0.541667,-0,33.875,12.8)">
            <path d="M14,9C13.007,9.933 12.2,11.404 12.2,13C12.2,14.596 13.007,16.067 14,17" style="fill:white;fill-opacity:0;stroke:black;stroke-width:2.49px;"/>
        </g>
        <g transform="matrix(0,-1,0.541667,0,-1.875,40.8)">
            <path d="M14,9C13.007,9.933 12.2,11.404 12.2,13C12.2,14.596 13.007,16.067 14,17" style="fill:white;fill-opacity:0;stroke:black;stroke-width:2.49px;"/>
        </g>
    </g>
    <g transform="matrix(1,0,0,1,0,5)">
        <g transform="matrix(-0,1,-0.541667,0,16.541667,-1.2)">
            <path d="M14,9C13.007,9.933 12.2,11.404 12.2,13C12.2,14.596 13.007,16.067 14,17" style="fill:white;fill-opacity:0;stroke:black;stroke-width:2.49px;"/>
        </g>
        <g transform="matrix(0,-1,0.541667,-0,6.791667,26.8)">
            <path d="M14,9C13.007,9.933 12.2,11.404 12.2,13C12.2,14.596 13.007,16.067 14,17" style="fill:white;fill-opacity:0;stroke:black;stroke-width:2.49px;"/>
        </g>
        <g transform="matrix(-0,1,-0.541667,-0,25.208333,-1.2)">
            <path d="M14,9C13.007,9.933 12.2,11.404 12.2,13C12.2,14.596 13.007,16.067 14,17" style="fill:white;fill-opacity:0;stroke:black;stroke-width:2.49px;"/>
        </g>
        <g transform="matrix(0,-1,0.541667,0,15.458333,26.8)">
            <path d="M14,9C13.007,9.933 12.2,11.404 12.2,13C12.2,14.596 13.007,16.067 14,17" style="fill:white;fill-opacity:0;stroke:black;stroke-width:2.49px;"/>
        </g>
        <g transform="matrix(-0,1,-0.541667,-0,33.875,-1.2)">
            <path d="M14,9C13.007,9.933 12.2,11.404 12.2,13C12.2,14.596 13.007,16.067 14,17" style="fill:white;fill-opacity:0;stroke:black;stroke-width:2.49px;"/>
        </g>
        <g transform="matrix(0,-1,0.541667,0,-1.875,26.8)">
            <path d="M14,9C13.007,9.933 12.2,11.404 12.2,13C12.2,14.596 13.007,16.067 14,17" style="fill:white;fill-opacity:0;stroke:black;stroke-width:2.49px;"/>
        </g>
    </g>
    <g transform="matrix(0,-0.473684,0.75,0,11.5,15.315789)">
        <path d="M7,6L21.778,6L21.778,3.333L26,6L21.778,8.667L21.778,6L7,6Z" style="fill:white;fill-opacity:0;stroke:black;stroke-width:3.19px;"/>
    </g>
</svg>
