<?xml version="1.0" encoding="UTF-8" standalone="no"?>
<!DOCTYPE svg PUBLIC "-//W3C//DTD SVG 1.1//EN" "http://www.w3.org/Graphics/SVG/1.1/DTD/svg11.dtd">
<svg width="100%" height="100%" viewBox="0 0 32 32" version="1.1" xmlns="http://www.w3.org/2000/svg" xmlns:xlink="http://www.w3.org/1999/xlink" xml:space="preserve" xmlns:serif="http://www.serif.com/" style="fill-rule:evenodd;clip-rule:evenodd;stroke-linecap:round;stroke-linejoin:round;stroke-miterlimit:1.5;">
    <g transform="matrix(0.707107,0.707107,-0.707107,0.707107,20.514719,-11.142136)">
        <path d="M16,4C16,4 23.778,17.692 23.778,23.092C23.778,26.403 19.311,28 16,28C12.689,28 8.222,26.403 8.222,23.092C8.222,17.692 16,4 16,4Z" style="fill:white;fill-opacity:0;stroke:black;stroke-width:2px;"/>
    </g>
    <g transform="matrix(0,1,-1,0,32,0)">
        <path d="M11,11L29,29" style="fill:none;stroke:black;stroke-width:2px;"/>
    </g>
    <g transform="matrix(0,1,-1,0,32,0)">
        <path d="M16,16L17,11" style="fill:none;stroke:black;stroke-width:2px;"/>
    </g>
    <g transform="matrix(0,1,-1,0,32,0)">
        <path d="M11,17L16,16" style="fill:none;stroke:black;stroke-width:2px;"/>
    </g>
</svg>
