<?xml version="1.0" encoding="UTF-8" standalone="no"?>
<!DOCTYPE svg PUBLIC "-//W3C//DTD SVG 1.1//EN" "http://www.w3.org/Graphics/SVG/1.1/DTD/svg11.dtd">
<svg width="100%" height="100%" viewBox="0 0 32 32" version="1.1" xmlns="http://www.w3.org/2000/svg" xmlns:xlink="http://www.w3.org/1999/xlink" xml:space="preserve" xmlns:serif="http://www.serif.com/" style="fill-rule:evenodd;clip-rule:evenodd;stroke-linecap:round;stroke-linejoin:round;stroke-miterlimit:1.5;">
    <g transform="matrix(0.526298,-0.624199,-0.576335,-0.485941,9.796831,16.167219)">
        <path d="M5,17L5,8L9,13L9.111,4.782" style="fill:none;stroke:black;stroke-width:2.55px;"/>
    </g>
    <g transform="matrix(0.424181,0.905577,-0.905577,0.424181,15.354412,7.078663)">
        <path d="M5,17L5,8L7.782,11.767L7.553,2.825" style="fill:none;stroke:black;stroke-width:2px;"/>
    </g>
    <g transform="matrix(0.770046,0.637989,-0.637989,0.770046,15.995582,12.815907)">
        <path d="M5,17L5,8L8,13L8,4" style="fill:none;stroke:black;stroke-width:2px;"/>
    </g>
    <g transform="matrix(1.181818,0,0,1.181818,4.772727,3.590909)">
        <path d="M9.5,5C9.5,1.964 11.964,-0.5 15,-0.5C18.036,-0.5 20.5,1.964 20.5,5C20.5,8.036 17.962,11.346 17.962,11.346" style="fill:rgb(45,80,22);fill-opacity:0;stroke:black;stroke-width:1.69px;"/>
    </g>
    <g transform="matrix(0.564935,0,0,0.506494,14.025974,7.253247)">
        <path d="M9.5,5C9.5,1.964 11.964,-0.5 15,-0.5C18.036,-0.5 20.5,1.964 20.5,5C20.5,8.036 18.73,9.372 18.73,9.372" style="fill:rgb(45,80,22);fill-opacity:0;stroke:black;stroke-width:3.73px;"/>
    </g>
    <g transform="matrix(0.708566,0.409091,-0.409091,0.708566,13.666961,12.820805)">
        <path d="M15.608,-3.113C15.325,1.284 19.722,1.568 20.5,5C21.147,7.853 17.438,10.5 15,10.5" style="fill:rgb(45,80,22);fill-opacity:0;stroke:black;stroke-width:2.44px;"/>
    </g>
</svg>
