<?xml version="1.0" encoding="UTF-8" standalone="no"?>
<!DOCTYPE svg PUBLIC "-//W3C//DTD SVG 1.1//EN" "http://www.w3.org/Graphics/SVG/1.1/DTD/svg11.dtd">
<svg width="100%" height="100%" viewBox="0 0 32 32" version="1.1" xmlns="http://www.w3.org/2000/svg" xmlns:xlink="http://www.w3.org/1999/xlink" xml:space="preserve" xmlns:serif="http://www.serif.com/" style="fill-rule:evenodd;clip-rule:evenodd;stroke-linejoin:round;stroke-miterlimit:2;">
    <g transform="matrix(0.009974,0,0,0.009974,16,16.605195)">
        <g transform="matrix(1,0,0,1,-1604.166667,-1564.583333)">
            <g id="Hintergrund" transform="matrix(4.166667,0,0,4.166667,162.5,116.666667)">
                <path d="M369.287,525.238C369.281,523.241 368.174,524.115 361.485,523.715C350.296,523.046 278.514,513.981 267.109,523.047C244.837,540.751 235.539,579.298 231.895,573.216C227.094,565.202 219.946,548.621 196.531,541.409C172.723,534.077 153.509,547.39 136.515,549.668C127.034,550.938 79.127,552.634 97.52,546.567C126.963,536.856 182.352,510.208 182.033,498.498C181.307,471.799 183.932,452.899 179.485,452.859C162.83,452.711 20.821,453.288 19.814,452.203C19.122,451.458 19.296,444.925 19.285,399.501C19.283,394.947 21.699,396.071 43.5,396.071C54.383,396.071 178.27,396.071 179.537,395.973C182.441,395.748 181.965,394.192 181.965,349.5C181.965,313.158 182.666,312.807 178.684,304.411C135.397,213.134 55.519,243.535 53.632,242.268C53.233,242 42.938,226.464 43.53,224.511C44.119,222.567 109.148,186.894 164.114,240.903C175.568,252.158 175.874,236.647 176.046,234.476C180.458,179.003 57.392,103.665 57.639,99.508C57.648,99.349 64.489,86.114 67.421,87.666C72.801,90.513 149.247,146.728 154.466,147.716C158.064,148.398 160.488,145.849 158.982,113.493C156.637,63.104 130.785,34.683 118.01,15.882C115.938,12.833 104.465,1.747 108.541,1.862C126.959,2.38 127.954,0.589 131.953,5.093C174.685,53.222 167.362,70.207 173.54,71.357C175.665,71.752 176.005,70.653 181.219,45.449C185.697,23.8 184.511,12.115 187.458,12.127C194.002,12.153 197.363,10.004 196.806,16.526C192.392,68.281 186.697,67.497 186.678,82.5C186.664,93.543 186.64,113.065 215.629,217.472C216.487,220.563 226.68,257.272 233.44,253.393C239.21,250.082 271.451,208.781 275.158,185.443C283.462,133.17 263.082,21.087 267.573,18.721C267.785,18.609 282.435,18.238 283.264,18.847C285.706,20.641 292.329,116.142 295.72,119.228C301.997,124.939 326.615,93.967 335.043,84.091C356.485,58.964 363.492,37.188 364.95,32.657C365.782,30.071 366.183,29.38 379.545,29.09C382.079,29.034 383.182,31.282 370.287,59.401C340.171,125.077 308.796,132.066 304.728,146.553C298.127,170.061 314.542,187.687 291.866,233.668C280.3,257.12 279.578,258.402 281.67,259.046C287.123,260.726 315.686,232.178 335.465,231.093C391.194,228.035 391.214,208.477 426.546,170.543C433.404,163.181 444.424,147.477 446.197,148.961C457.047,158.042 452.129,160.687 444.768,172.659C407.46,233.338 397.092,251.714 367.443,256.103C343.905,259.588 326.951,273.347 323.672,275.735C321.659,277.201 280.299,321.25 280.059,323.454C280.036,323.671 279.703,393.769 279.886,394.452C280.384,396.304 281.344,395.936 387.5,395.983C465.572,396.017 465.717,395.914 466.258,395.253C478.256,380.595 530.831,306.796 632.542,312.174C636.913,312.406 633.709,314.891 627.834,331.613C624.505,341.086 624.512,340.96 621.085,350.337C620.156,352.879 618.678,353.423 620.557,354.31C621.28,354.652 646.177,349.525 648.397,349.068C649.898,348.759 688.994,341.133 691.498,340.987C697.71,340.625 689.172,378.597 687.308,384.436C684.049,394.643 682.264,395.865 684.621,396.07C689.089,396.458 689.041,395.71 693.544,396.109C696.078,396.333 695.551,397.77 695.578,446.5C695.58,450.573 697.635,452.668 693.519,452.729C649.566,453.384 648.876,452.103 645.967,454.957C607.088,493.103 600.33,487.957 592.838,494.862C591.135,496.431 593.811,496.031 616.38,511.692C654.251,537.972 646.316,552.784 637.425,561.419C630.185,568.45 593.069,572.044 578.575,585.568C570.27,593.317 611.597,586.229 635.529,584.954C638.698,584.785 665.162,578.177 671.15,594.635C678.091,613.712 632.843,618.603 653.655,625.061C662.388,627.771 697.836,624.018 698.767,627.424C698.959,628.127 698.869,668.158 698.746,668.583C698.352,669.944 697.674,669.783 516.5,669.783C3.56,669.783 3.265,669.772 2.964,669.224C2.334,668.076 3.336,667.941 36.575,656.72C125.746,626.617 129.992,626.538 138.498,626.38C149.634,626.173 155.239,646.265 192.347,631.083C236.741,612.919 317.085,571.408 332.511,565.527C337.864,563.486 337.74,562.899 337.492,562.505C336.29,560.596 304.376,551.878 296.55,551.044C296.033,550.989 290.446,550.393 290.208,549.632C288.582,544.44 294.865,551.161 355.328,530.009C362.373,527.545 362.259,527.601 369.287,525.238ZM347.712,548.705C439.782,519.285 430.63,495.57 442.871,466.662C469.464,403.859 518.345,349.34 576.446,333.346C587.504,330.302 587.391,329.879 610.508,326.965C615.851,326.291 611.881,330.062 602.626,356.547C599.238,366.243 595.534,373.896 598.475,373.753C602.433,373.561 676.287,357.999 677.086,359.695C678.582,362.868 666.545,401.833 659.811,411.6C644.731,433.471 625.275,467.226 556.722,494.96C476.855,527.27 445.424,502.578 407.339,559.39C398.917,571.953 397.445,582.026 394.535,579.453C362.707,551.321 353.469,554.034 347.778,550.108C347.685,550.044 347.778,550.108 347.712,548.705ZM278.966,457.5C279.521,453.843 279.339,453.781 279.565,453.556C279.611,453.509 279.622,452.858 421.5,452.812C428.327,452.81 433.053,451.122 430.202,457.359C423.729,471.52 424.629,471.78 419.845,486.628C413.153,507.401 376.244,522.748 373.39,521.845C335.17,509.751 286.308,476.451 285.745,476.094C276.603,470.299 278.977,468.339 278.966,457.5Z"/>
                <path d="M645.498,384.055C668.681,386.07 663.263,410.146 652.391,415.248C631.005,425.284 616.281,386.716 645.498,384.055Z"/>
            </g>
        </g>
    </g>
</svg>
